<mxfile host="app.diagrams.net" agent="Mozilla/5.0 (Macintosh; Intel Mac OS X 10_15_7) AppleWebKit/537.36 (KHTML, like Gecko) Chrome/131.0.0.0 Safari/537.36" version="25.0.3">
  <diagram name="第 1 页" id="K3KPA8fmOUS73q_CNvnL">
    <mxGraphModel dx="1306" dy="716" grid="1" gridSize="10" guides="1" tooltips="1" connect="1" arrows="1" fold="1" page="1" pageScale="1" pageWidth="827" pageHeight="1169" math="0" shadow="0">
      <root>
        <mxCell id="0" />
        <mxCell id="1" parent="0" />
        <mxCell id="fSzlGWqt0HBlNaSxcD95-1" value="" style="rounded=0;whiteSpace=wrap;html=1;dashed=1;" vertex="1" parent="1">
          <mxGeometry x="140" y="280" width="600" height="200" as="geometry" />
        </mxCell>
        <mxCell id="fSzlGWqt0HBlNaSxcD95-2" value="" style="rounded=0;whiteSpace=wrap;html=1;fillColor=#F8CECC;" vertex="1" parent="1">
          <mxGeometry x="160" y="300" width="560" height="140" as="geometry" />
        </mxCell>
        <mxCell id="fSzlGWqt0HBlNaSxcD95-3" value="&lt;font style=&quot;font-size: 13px;&quot;&gt;&lt;b&gt;存&lt;br&gt;储&lt;br&gt;层&lt;/b&gt;&lt;/font&gt;" style="text;html=1;align=center;verticalAlign=middle;whiteSpace=wrap;rounded=0;" vertex="1" parent="1">
          <mxGeometry x="160" y="340" width="60" height="30" as="geometry" />
        </mxCell>
        <mxCell id="fSzlGWqt0HBlNaSxcD95-4" value="" style="rounded=0;whiteSpace=wrap;html=1;strokeColor=#006600;" vertex="1" parent="1">
          <mxGeometry x="230" y="310" width="120" height="110" as="geometry" />
        </mxCell>
        <mxCell id="fSzlGWqt0HBlNaSxcD95-5" value="user" style="rounded=0;whiteSpace=wrap;html=1;strokeColor=#006600;" vertex="1" parent="1">
          <mxGeometry x="240" y="338" width="100" height="30" as="geometry" />
        </mxCell>
        <mxCell id="fSzlGWqt0HBlNaSxcD95-6" value="admin" style="rounded=0;whiteSpace=wrap;html=1;strokeColor=#006600;" vertex="1" parent="1">
          <mxGeometry x="240" y="378" width="100" height="30" as="geometry" />
        </mxCell>
        <mxCell id="fSzlGWqt0HBlNaSxcD95-7" value="Mysql" style="text;html=1;align=center;verticalAlign=middle;whiteSpace=wrap;rounded=0;" vertex="1" parent="1">
          <mxGeometry x="260" y="309" width="60" height="30" as="geometry" />
        </mxCell>
        <mxCell id="fSzlGWqt0HBlNaSxcD95-8" value="" style="rounded=0;whiteSpace=wrap;html=1;strokeColor=#CC6600;" vertex="1" parent="1">
          <mxGeometry x="390" y="310" width="120" height="110" as="geometry" />
        </mxCell>
        <mxCell id="fSzlGWqt0HBlNaSxcD95-9" value="user" style="rounded=0;whiteSpace=wrap;html=1;strokeColor=#CC6600;" vertex="1" parent="1">
          <mxGeometry x="400" y="338" width="100" height="30" as="geometry" />
        </mxCell>
        <mxCell id="fSzlGWqt0HBlNaSxcD95-10" value="admin" style="rounded=0;whiteSpace=wrap;html=1;strokeColor=#CC6600;" vertex="1" parent="1">
          <mxGeometry x="400" y="378" width="100" height="30" as="geometry" />
        </mxCell>
        <mxCell id="fSzlGWqt0HBlNaSxcD95-11" value="Redis" style="text;html=1;align=center;verticalAlign=middle;whiteSpace=wrap;rounded=0;" vertex="1" parent="1">
          <mxGeometry x="420" y="309" width="60" height="30" as="geometry" />
        </mxCell>
        <mxCell id="fSzlGWqt0HBlNaSxcD95-12" value="" style="rounded=0;whiteSpace=wrap;html=1;strokeColor=#3333FF;" vertex="1" parent="1">
          <mxGeometry x="560" y="311" width="120" height="110" as="geometry" />
        </mxCell>
        <mxCell id="fSzlGWqt0HBlNaSxcD95-13" value="user" style="rounded=0;whiteSpace=wrap;html=1;strokeColor=#3333FF;" vertex="1" parent="1">
          <mxGeometry x="570" y="339" width="100" height="30" as="geometry" />
        </mxCell>
        <mxCell id="fSzlGWqt0HBlNaSxcD95-14" value="admin" style="rounded=0;whiteSpace=wrap;html=1;strokeColor=#3333FF;" vertex="1" parent="1">
          <mxGeometry x="570" y="379" width="100" height="30" as="geometry" />
        </mxCell>
        <mxCell id="fSzlGWqt0HBlNaSxcD95-15" value="Oracle" style="text;html=1;align=center;verticalAlign=middle;whiteSpace=wrap;rounded=0;" vertex="1" parent="1">
          <mxGeometry x="590" y="310" width="60" height="30" as="geometry" />
        </mxCell>
        <mxCell id="fSzlGWqt0HBlNaSxcD95-16" value="&lt;font color=&quot;#3333ff&quot;&gt;&lt;b&gt;LEO-Module-Biz&lt;/b&gt;&lt;/font&gt;" style="text;html=1;align=center;verticalAlign=middle;whiteSpace=wrap;rounded=0;" vertex="1" parent="1">
          <mxGeometry x="160" y="450" width="120" height="30" as="geometry" />
        </mxCell>
      </root>
    </mxGraphModel>
  </diagram>
</mxfile>
